<?xml version="1.0" encoding="utf-8"?>
<!-- Generator: Adobe Illustrator 15.0.2, SVG Export Plug-In . SVG Version: 6.00 Build 0)  -->
<!DOCTYPE svg PUBLIC "-//W3C//DTD SVG 1.1//EN" "http://www.w3.org/Graphics/SVG/1.1/DTD/svg11.dtd">
<svg version="1.1" id="Layer_4" xmlns="http://www.w3.org/2000/svg" xmlns:xlink="http://www.w3.org/1999/xlink" x="0px" y="0px"
	 width="814.459px" height="461.977px" viewBox="0 0 814.459 461.977" style="enable-background:new 0 0 814.459 461.977;"
	 xml:space="preserve">
<rect x="-117.111" y="-93.105" style="display:none;" width="1037" height="768"/>
<g>
	<g>
		<path style="fill:#FFFFFF;" d="M51.262,92.515c-7.874,34.699-15.108,69.788-16.766,105.421c-0.451,9.69,14.555,9.733,15.003,0.108
			c1.599-34.36,8.642-68.112,16.233-101.568C67.871,87.051,53.403,83.079,51.262,92.515L51.262,92.515z"/>
	</g>
</g>
<g>
	<g>
		<path style="fill:#FFFFFF;" d="M15.797,112.964c30.629-14.559,61.814-27.876,94.139-38.223c9.181-2.939,5.341-17.441-3.882-14.489
			C72.471,71.001,40.022,84.9,8.201,100.025C-0.527,104.174,7.115,117.091,15.797,112.964L15.797,112.964z"/>
	</g>
</g>
<g>
	<g>
		<path style="fill:#FFFFFF;" d="M17.945,220.491c24.87-3.189,49.155-9.017,72.492-18.256c3.8-1.504,6.454-4.894,5.304-9.186
			c-0.966-3.605-5.376-6.812-9.186-5.304c-21.976,8.701-45.049,14.735-68.501,17.742c-4.052,0.52-7.526,2.954-7.556,7.448
			C10.473,216.603,13.882,221.012,17.945,220.491L17.945,220.491z"/>
	</g>
</g>
<g>
	<g>
		<path style="fill:#FFFFFF;" d="M125.992,56.943c0.005,8.312,0.328,16.623,3.257,24.494c1.425,3.83,4.955,6.437,9.186,5.304
			c3.667-0.983,6.732-5.348,5.304-9.186c-2.503-6.727-2.738-13.403-2.743-20.503C140.988,47.365,125.985,47.279,125.992,56.943
			L125.992,56.943z"/>
	</g>
</g>
<g>
	<g>
		<path style="fill:#FFFFFF;" d="M155.99,82.441c-2.994,34.434-5.942,68.905-5.999,103.495c-0.016,9.688,14.987,9.771,15.003,0.108
			c0.058-34.59,3.006-69.061,6-103.495C171.833,72.89,156.821,72.884,155.99,82.441L155.99,82.441z"/>
	</g>
</g>
<g>
	<g>
		<path style="fill:#FFFFFF;" d="M179.989,49.443c0,39.018,0.056,78.065,3,116.994c0.725,9.591,15.732,9.747,15.003,0.108
			c-2.943-38.93-2.999-77.977-2.999-116.994C194.992,39.865,179.989,39.779,179.989,49.443L179.989,49.443z"/>
	</g>
</g>
<g>
	<g>
		<path style="fill:#FFFFFF;" d="M256.017,51.795c13.503,24.146,22.144,50.07,24.528,77.688c2.395,27.738-0.226,55.728-1.562,83.452
			c-0.467,9.689,14.54,9.73,15.003,0.108c1.361-28.25,3.876-56.653,1.436-84.914c-2.574-29.808-11.889-57.861-26.466-83.93
			C264.238,35.762,251.293,43.348,256.017,51.795L256.017,51.795z"/>
	</g>
</g>
<g>
	<g>
		<path style="fill:#FFFFFF;" d="M348.987,24.749c-12.794,29.133-22.911,59.497-28.676,90.828
			c-5.821,31.634-7.418,65.337,2.428,96.354c2.917,9.19,17.419,5.348,14.489-3.882c-9.066-28.56-7.655-59.344-2.447-88.512
			c5.356-30,14.955-59.414,27.196-87.288c1.642-3.739,1.084-8.035-2.745-10.245C355.984,20.128,350.633,21,348.987,24.749
			L348.987,24.749z"/>
	</g>
</g>
<g>
	<g>
		<path style="fill:#FFFFFF;" d="M290.505,151.228c19.019,7.551,42.25,5.078,62.025,2.616c20.379-2.538,43.103-5.596,61.757-14.716
			c8.124-3.972,14.588-11.339,12.918-20.791c-1.431-8.097-10.712-12.651-17.884-14.114c-23.975-4.891-43.894,11.397-52.452,32.655
			c-4.043,10.043-4.743,22.442-0.723,32.589c3.808,9.611,10.984,16.734,19.383,22.503c16.939,11.637,39.165,16.658,59.394,18.021
			c9.678,0.652,9.701-14.357,0.107-15.003c-19.18-1.292-41.31-6.466-56.236-19.256c-7.729-6.623-10.933-14.853-10.073-24.969
			c0.853-10.034,7.106-20.634,15.068-26.675c7.14-5.417,16.717-7.16,25.274-4.437c0.502,0.16,2.844,1.483,2.441,1.167
			c0.966,0.758,1.323,1.559,1.053,0.819c0.149,0.407,0.038,0.089,0.169-0.188c-0.335,0.711-1.486,1.963-2.906,2.938
			c-7.587,5.203-18.127,6.97-26.974,9.012c-10.414,2.404-20.985,4.293-31.591,5.614c-18.1,2.254-39.383,4.657-56.791-2.254
			c-3.809-1.512-8.223,1.641-9.215,5.254C284.077,146.284,286.713,149.723,290.505,151.228L290.505,151.228z"/>
	</g>
</g>
<g>
	<g>
		<path style="fill:#FFFFFF;" d="M457.475,28.444c-0.054,12.879-2.054,25.794-3.615,38.551c-2.141,17.483-4.266,34.973-5.518,52.547
			c-1.229,17.237-1.645,34.658,0.695,51.82c1.775,13.028,5.458,26.985,15.163,36.459c6.913,6.749,17.489-3.892,10.551-10.665
			c-3.224-3.148-5.689-7.639-7.243-11.976c-2.162-6.035-3.384-12.466-4.1-18.823c-1.882-16.701-1.061-33.702,0.21-50.414
			c1.27-16.695,3.344-33.317,5.378-49.932c1.518-12.397,3.43-24.945,3.482-37.46C472.519,18.864,457.516,18.783,457.475,28.444
			L457.475,28.444z"/>
	</g>
</g>
<g>
	<g>
		<path style="fill:#FFFFFF;" d="M489.24,106.014c-4.385,15.267-6.477,30.995-6.962,46.853c-0.501,16.348,1.41,32.61,1.266,48.944
			c-0.281,31.672-8.214,62.529-15.303,93.195c-2.177,9.419,12.291,13.388,14.471,3.961c6.98-30.198,14.406-60.423,15.695-91.525
			c0.676-16.311-1.227-32.574-1.211-48.885c0.016-16.484,1.959-32.722,6.515-48.581C506.388,100.653,491.907,96.731,489.24,106.014
			L489.24,106.014z"/>
	</g>
</g>
<g>
	<g>
		<path style="fill:#FFFFFF;" d="M481.971,114.744c11.978-22.943,50.167-13.282,61.683,5.488
			c7.995,13.033-0.276,27.984-8.937,38.531c-10.953,13.341-24.779,23.937-36.074,36.95c-6.303,7.261,4.305,17.879,10.664,10.552
			c13.204-15.212,29.336-27.439,41.353-43.756c11.297-15.337,15.841-35.785,4.321-52.337c-18.188-26.133-69.107-35.286-86-2.928
			C464.514,115.801,477.486,123.336,481.971,114.744L481.971,114.744z"/>
	</g>
</g>
<g>
	<g>
		<path style="fill:#FFFFFF;" d="M591.235,10.019c-10.717,40.125-16.672,81.866-16.766,123.42
			c-0.021,9.688,14.981,9.771,15.004,0.108c0.091-40.333,5.83-80.623,16.232-119.568C608.206,4.617,593.73,0.679,591.235,10.019
			L591.235,10.019z"/>
	</g>
</g>
<g>
	<g>
		<path style="fill:#FFFFFF;" d="M572.917,191.992c9.686,0,9.771-15.003,0.107-15.003
			C563.339,176.989,563.253,191.992,572.917,191.992L572.917,191.992z"/>
	</g>
</g>
<g>
	<g>
		<path style="fill:#FFFFFF;" d="M632.915,145.494c34.366,3.852,69.484,2.805,103.158,11.621
			c14.938,3.911,29.547,10.188,40.579,21.026c11.931,11.72,17.149,28.196,18.134,44.75c2.831,47.612-30.431,85.901-44.559,129.11
			c-3.016,9.225,11.478,13.114,14.471,3.961c8.102-24.781,22.084-47.025,32.306-70.911c10.119-23.646,15.217-48.135,11.555-73.804
			c-2.476-17.355-10.486-33.72-23.366-45.694c-12.294-11.429-28.17-18.239-44.172-22.645c-35.114-9.666-72.074-8.393-107.998-12.418
			c-4.068-0.456-7.53,3.683-7.556,7.447C625.437,142.352,628.855,145.04,632.915,145.494L632.915,145.494z"/>
	</g>
</g>
<g>
	<g>
		<path style="fill:#FFFFFF;" d="M713.911,364.484c27.052,0.14,53.927,5.795,80.996,2.999c-2.395-3.161-4.788-6.321-7.182-9.482
			c-1.5,8.39-6.973,14.798-12.802,20.701c-6.677,6.763-14.215,12.63-21.431,18.792c-16.193,13.827-26.803,31.826-37.024,50.233
			c4.58,0.603,9.159,1.206,13.739,1.809c-8.072-26.618-3.654-61.975-27.467-81.388c-3.162-2.577-7.527-3.062-10.607,0.058
			c-2.665,2.698-3.119,8.02,0.057,10.608c10.19,8.308,13.555,21.058,15.971,33.461c2.664,13.676,3.5,27.761,7.559,41.144
			c1.849,6.096,10.462,7.71,13.739,1.809c5.27-9.489,10.575-18.949,16.792-27.86c5.893-8.446,13.183-15.356,21.015-21.957
			c13.692-11.539,31.563-24.611,34.931-43.448c0.765-4.279-1.974-10.02-7.182-9.482c-27.069,2.796-53.944-2.858-80.996-2.999
			C704.33,349.431,704.249,364.434,713.911,364.484L713.911,364.484z"/>
	</g>
</g>
</svg>
